<svg width="80" height="81" viewBox="0 0 80 81" fill="none" xmlns="http://www.w3.org/2000/svg">
<rect y="0.5" width="80" height="80" rx="40" fill="#D3C1FF"/>
<path fill-rule="evenodd" clip-rule="evenodd" d="M52.0005 32.5C52.0005 39.1274 46.6279 44.5 40.0005 44.5C33.3731 44.5 28.0005 39.1274 28.0005 32.5C28.0005 25.8726 33.3731 20.5 40.0005 20.5C46.6279 20.5 52.0005 25.8726 52.0005 32.5ZM48.0005 32.5C48.0005 36.9183 44.4188 40.5 40.0005 40.5C35.5822 40.5 32.0005 36.9183 32.0005 32.5C32.0005 28.0817 35.5822 24.5 40.0005 24.5C44.4188 24.5 48.0005 28.0817 48.0005 32.5Z" fill="black"/>
<path d="M40.0005 50.5C27.0517 50.5 16.019 58.1568 11.8164 68.8841C12.8402 69.9007 13.9187 70.8623 15.0471 71.7641C18.1765 61.9154 27.9939 54.5 40.0005 54.5C52.0071 54.5 61.8245 61.9154 64.9539 71.7641C66.0823 70.8623 67.1608 69.9007 68.1846 68.8841C63.982 58.1568 52.9493 50.5 40.0005 50.5Z" fill="black"/>
</svg>
